<svg width="71" height="48" viewBox="0 0 71 48" fill="none" xmlns="http://www.w3.org/2000/svg">
<rect x="4" y="4" width="62.8" height="39.2" stroke="url(#paint0_linear_224_4594)" stroke-width="4"/>
<rect width="4" height="4" fill="url(#paint1_linear_224_4594)"/>
<rect x="66.8" width="4" height="4" fill="url(#paint2_linear_224_4594)"/>
<rect y="43.2" width="4" height="4" fill="url(#paint3_linear_224_4594)"/>
<rect x="66.8" y="43.2" width="4" height="4" fill="url(#paint4_linear_224_4594)"/>
<path d="M55.0082 34.4896L58.4739 31.1199C59.7941 29.8362 59.7375 28.072 58.3801 27.1712L55.396 25.2303L49.2074 31.2476L51.0637 34.285C51.8592 35.5984 53.7705 35.6931 55.0082 34.4896Z" stroke="url(#paint5_linear_224_4594)" stroke-width="3" stroke-linecap="round" stroke-linejoin="round"/>
<path d="M55.3831 25.2165L55.703 20.7852C55.887 18.3055 55.1396 17.4267 52.7836 17.1224L43.4143 15.8786C41.451 15.6205 40.007 17.0245 40.21 18.9943L41.1902 28.3948C41.4284 30.7584 42.2709 31.6249 44.7697 31.4158L49.2082 31.2205" stroke="url(#paint6_linear_224_4594)" stroke-width="3" stroke-linecap="round" stroke-linejoin="round"/>
<path d="M41.5246 17.1545L44.9078 20.634" stroke="url(#paint7_linear_224_4594)" stroke-width="3" stroke-linecap="round" stroke-linejoin="round"/>
<path d="M34.4167 36.58H12.7834V33.6502L28.0976 14.2423H13.2568V10.62H34.0051V13.5321L18.6909 32.9577H34.4167V36.58Z" fill="url(#paint8_linear_224_4594)"/>
<defs>
<linearGradient id="paint0_linear_224_4594" x1="35.4" y1="2" x2="35.4" y2="45.2" gradientUnits="userSpaceOnUse">
<stop offset="0.730769" stop-color="#380488"/>
</linearGradient>
<linearGradient id="paint1_linear_224_4594" x1="2" y1="0" x2="2" y2="4" gradientUnits="userSpaceOnUse">
<stop offset="0.730769" stop-color="#380488"/>
</linearGradient>
<linearGradient id="paint2_linear_224_4594" x1="68.8" y1="0" x2="68.8" y2="4" gradientUnits="userSpaceOnUse">
<stop offset="0.730769" stop-color="#380488"/>
</linearGradient>
<linearGradient id="paint3_linear_224_4594" x1="2" y1="43.2" x2="2" y2="47.2" gradientUnits="userSpaceOnUse">
<stop offset="0.730769" stop-color="#380488"/>
</linearGradient>
<linearGradient id="paint4_linear_224_4594" x1="68.8" y1="43.2" x2="68.8" y2="47.2" gradientUnits="userSpaceOnUse">
<stop offset="0.730769" stop-color="#380488"/>
</linearGradient>
<linearGradient id="paint5_linear_224_4594" x1="52.3031" y1="28.2376" x2="56.7424" y2="32.8034" gradientUnits="userSpaceOnUse">
<stop offset="0.730769" stop-color="#380488"/>
</linearGradient>
<linearGradient id="paint6_linear_224_4594" x1="40.9903" y1="16.6102" x2="52.2862" y2="28.2277" gradientUnits="userSpaceOnUse">
<stop offset="0.730769" stop-color="#380488"/>
</linearGradient>
<linearGradient id="paint7_linear_224_4594" x1="41.8831" y1="16.806" x2="45.2662" y2="20.2854" gradientUnits="userSpaceOnUse">
<stop offset="0.730769" stop-color="#380488"/>
</linearGradient>
<linearGradient id="paint8_linear_224_4594" x1="23.6001" y1="10.62" x2="23.6001" y2="36.58" gradientUnits="userSpaceOnUse">
<stop offset="0.730769" stop-color="#380488"/>
</linearGradient>
</defs>
</svg>
