<svg width="60" height="61" viewBox="0 0 60 61" fill="none" xmlns="http://www.w3.org/2000/svg">
<g filter="url(#filter0_di_224_5404)">
<circle cx="30" cy="30.5" r="25" fill="white" fill-opacity="0.01" shape-rendering="crispEdges"/>
</g>
<mask id="mask0_224_5404" style="mask-type:alpha" maskUnits="userSpaceOnUse" x="5" y="5" width="50" height="51">
<circle cx="30" cy="30.5" r="25" fill="#D9D9D9"/>
</mask>
<g mask="url(#mask0_224_5404)">
<g filter="url(#filter1_f_224_5404)">
<ellipse cx="46.5" cy="13.5" rx="23.5" ry="23" fill="#9747FF" fill-opacity="0.8"/>
</g>
</g>
<circle cx="30" cy="30.5" r="22" fill="black" fill-opacity="0.95"/>
<path fill-rule="evenodd" clip-rule="evenodd" d="M30 18.9568C23.7474 18.9568 18.6772 24.0258 18.6772 30.2795C18.6772 35.2824 21.9216 39.5265 26.4204 41.0238C26.9861 41.1288 27.1939 40.7782 27.1939 40.4792C27.1939 40.2092 27.1834 39.3172 27.1785 38.3711C24.0285 39.056 23.3638 37.0352 23.3638 37.0352C22.8487 35.7264 22.1066 35.3784 22.1066 35.3784C21.0791 34.6757 22.1841 34.6903 22.1841 34.6903C23.3209 34.77 23.9197 35.8571 23.9197 35.8571C24.9296 37.5877 26.5686 37.0875 27.2147 36.7984C27.3163 36.0665 27.6097 35.5669 27.9336 35.2841C25.4186 34.9982 22.7747 34.0271 22.7747 29.6885C22.7747 28.4523 23.2172 27.4423 23.9415 26.6492C23.8237 26.3642 23.4362 25.2125 24.051 23.6529C24.051 23.6529 25.0016 23.3486 27.1654 24.8135C28.0687 24.5625 29.0376 24.4363 30 24.432C30.9619 24.4363 31.9312 24.5621 32.8363 24.8132C34.9974 23.3482 35.9469 23.6525 35.9469 23.6525C36.5632 25.212 36.1757 26.3638 36.0581 26.6488C36.7841 27.4419 37.2234 28.452 37.2234 29.6882C37.2234 34.037 34.5746 34.9944 32.0533 35.2749C32.4596 35.6263 32.8215 36.3155 32.8215 37.3717C32.8215 38.8867 32.8084 40.106 32.8084 40.479C32.8084 40.7803 33.0124 41.1334 33.5861 41.0222C38.0824 39.5233 41.3229 35.2805 41.3229 30.2795C41.3227 24.0262 36.2531 18.957 30 18.957V18.9568Z" fill="white"/>
<path d="M22.9657 35.2136C22.9408 35.2699 22.8523 35.2868 22.7717 35.2483C22.6892 35.2116 22.6432 35.1349 22.6699 35.0785C22.6942 35.0203 22.7829 35.0044 22.8649 35.0432C22.9474 35.0801 22.9942 35.1576 22.9656 35.2138L22.9657 35.2136ZM23.4244 35.7253C23.3706 35.7754 23.265 35.7521 23.1934 35.6728C23.1191 35.5941 23.1052 35.4885 23.1602 35.4377C23.2161 35.3878 23.3184 35.4115 23.3927 35.4902C23.4666 35.5701 23.4812 35.6747 23.4246 35.7255L23.4244 35.7253ZM23.871 36.3773C23.8016 36.4256 23.688 36.3805 23.6179 36.2798C23.5485 36.1789 23.5485 36.058 23.6197 36.0098C23.6897 35.9614 23.8016 36.0051 23.8729 36.1048C23.9419 36.207 23.9419 36.328 23.871 36.3771V36.3773ZM24.4824 37.0075C24.4206 37.0759 24.2882 37.0575 24.1914 36.9643C24.0926 36.873 24.0651 36.7431 24.1271 36.6748C24.1901 36.6062 24.3231 36.6253 24.4204 36.718C24.5192 36.8091 24.549 36.9392 24.4828 37.0073L24.4824 37.0075ZM25.3262 37.3733C25.2986 37.462 25.1715 37.5023 25.0431 37.4644C24.915 37.4256 24.8312 37.3219 24.8574 37.2323C24.8837 37.1428 25.0117 37.101 25.1409 37.1413C25.269 37.18 25.3528 37.2831 25.3262 37.3733ZM26.253 37.441C26.2562 37.5343 26.1474 37.6116 26.013 37.6135C25.8774 37.6166 25.7677 37.5409 25.7664 37.449C25.7664 37.3547 25.8729 37.2784 26.0083 37.2758C26.1427 37.2733 26.2532 37.3483 26.2532 37.4408L26.253 37.441ZM27.1151 37.2943C27.1312 37.3853 27.0377 37.4788 26.904 37.5038C26.7727 37.5281 26.6509 37.4715 26.634 37.3813C26.6179 37.288 26.7131 37.1944 26.8444 37.1702C26.9782 37.1471 27.0982 37.2021 27.1151 37.2945V37.2943Z" fill="white"/>
<defs>
<filter id="filter0_di_224_5404" x="0" y="0.5" width="60" height="60" filterUnits="userSpaceOnUse" color-interpolation-filters="sRGB">
<feFlood flood-opacity="0" result="BackgroundImageFix"/>
<feColorMatrix in="SourceAlpha" type="matrix" values="0 0 0 0 0 0 0 0 0 0 0 0 0 0 0 0 0 0 127 0" result="hardAlpha"/>
<feOffset/>
<feGaussianBlur stdDeviation="2.5"/>
<feComposite in2="hardAlpha" operator="out"/>
<feColorMatrix type="matrix" values="0 0 0 0 0.592157 0 0 0 0 0.278431 0 0 0 0 1 0 0 0 1 0"/>
<feBlend mode="normal" in2="BackgroundImageFix" result="effect1_dropShadow_224_5404"/>
<feBlend mode="normal" in="SourceGraphic" in2="effect1_dropShadow_224_5404" result="shape"/>
<feColorMatrix in="SourceAlpha" type="matrix" values="0 0 0 0 0 0 0 0 0 0 0 0 0 0 0 0 0 0 127 0" result="hardAlpha"/>
<feOffset/>
<feGaussianBlur stdDeviation="9.9"/>
<feComposite in2="hardAlpha" operator="arithmetic" k2="-1" k3="1"/>
<feColorMatrix type="matrix" values="0 0 0 0 0.592157 0 0 0 0 0.278431 0 0 0 0 1 0 0 0 1 0"/>
<feBlend mode="normal" in2="shape" result="effect2_innerShadow_224_5404"/>
</filter>
<filter id="filter1_f_224_5404" x="11" y="-21.5" width="71" height="70" filterUnits="userSpaceOnUse" color-interpolation-filters="sRGB">
<feFlood flood-opacity="0" result="BackgroundImageFix"/>
<feBlend mode="normal" in="SourceGraphic" in2="BackgroundImageFix" result="shape"/>
<feGaussianBlur stdDeviation="6" result="effect1_foregroundBlur_224_5404"/>
</filter>
</defs>
</svg>
