<svg width="60" height="61" viewBox="0 0 60 61" fill="none" xmlns="http://www.w3.org/2000/svg">
<g filter="url(#filter0_di_224_4613)">
<circle cx="30" cy="30.5" r="25" fill="white" fill-opacity="0.01" shape-rendering="crispEdges"/>
</g>
<mask id="mask0_224_4613" style="mask-type:alpha" maskUnits="userSpaceOnUse" x="5" y="5" width="50" height="51">
<circle cx="30" cy="30.5" r="25" fill="#D9D9D9"/>
</mask>
<g mask="url(#mask0_224_4613)">
<g filter="url(#filter1_f_224_4613)">
<ellipse cx="46.5" cy="13.5" rx="23.5" ry="23" fill="#9747FF" fill-opacity="0.8"/>
</g>
</g>
<circle cx="30" cy="30.5" r="22" fill="black" fill-opacity="0.95"/>
<path d="M35 20.5H25C22.2386 20.5 20 22.7386 20 25.5V35.5C20 38.2614 22.2386 40.5 25 40.5H35C37.7614 40.5 40 38.2614 40 35.5V25.5C40 22.7386 37.7614 20.5 35 20.5Z" stroke="white" stroke-width="1.5" stroke-linecap="round" stroke-linejoin="round"/>
<path d="M34 29.8701C34.1234 30.7023 33.9813 31.5523 33.5938 32.2991C33.2063 33.0459 32.5931 33.6515 31.8416 34.0297C31.0901 34.408 30.2384 34.5397 29.4078 34.406C28.5771 34.2723 27.8098 33.8801 27.2148 33.2852C26.6199 32.6903 26.2277 31.9229 26.0941 31.0923C25.9604 30.2616 26.0921 29.41 26.4703 28.6584C26.8486 27.9069 27.4542 27.2938 28.201 26.9063C28.9478 26.5188 29.7978 26.3766 30.63 26.5001C31.4789 26.6259 32.2648 27.0215 32.8717 27.6284C33.4785 28.2352 33.8741 29.0211 34 29.8701Z" stroke="white" stroke-width="1.5" stroke-linecap="round" stroke-linejoin="round"/>
<path d="M35.5 25H35.51" stroke="black" stroke-width="1.5" stroke-linecap="round" stroke-linejoin="round"/>
<defs>
<filter id="filter0_di_224_4613" x="0" y="0.5" width="60" height="60" filterUnits="userSpaceOnUse" color-interpolation-filters="sRGB">
<feFlood flood-opacity="0" result="BackgroundImageFix"/>
<feColorMatrix in="SourceAlpha" type="matrix" values="0 0 0 0 0 0 0 0 0 0 0 0 0 0 0 0 0 0 127 0" result="hardAlpha"/>
<feOffset/>
<feGaussianBlur stdDeviation="2.5"/>
<feComposite in2="hardAlpha" operator="out"/>
<feColorMatrix type="matrix" values="0 0 0 0 0.592157 0 0 0 0 0.278431 0 0 0 0 1 0 0 0 1 0"/>
<feBlend mode="normal" in2="BackgroundImageFix" result="effect1_dropShadow_224_4613"/>
<feBlend mode="normal" in="SourceGraphic" in2="effect1_dropShadow_224_4613" result="shape"/>
<feColorMatrix in="SourceAlpha" type="matrix" values="0 0 0 0 0 0 0 0 0 0 0 0 0 0 0 0 0 0 127 0" result="hardAlpha"/>
<feOffset/>
<feGaussianBlur stdDeviation="9.9"/>
<feComposite in2="hardAlpha" operator="arithmetic" k2="-1" k3="1"/>
<feColorMatrix type="matrix" values="0 0 0 0 0.592157 0 0 0 0 0.278431 0 0 0 0 1 0 0 0 1 0"/>
<feBlend mode="normal" in2="shape" result="effect2_innerShadow_224_4613"/>
</filter>
<filter id="filter1_f_224_4613" x="11" y="-21.5" width="71" height="70" filterUnits="userSpaceOnUse" color-interpolation-filters="sRGB">
<feFlood flood-opacity="0" result="BackgroundImageFix"/>
<feBlend mode="normal" in="SourceGraphic" in2="BackgroundImageFix" result="shape"/>
<feGaussianBlur stdDeviation="6" result="effect1_foregroundBlur_224_4613"/>
</filter>
</defs>
</svg>
