<svg width="60" height="61" viewBox="0 0 60 61" fill="none" xmlns="http://www.w3.org/2000/svg">
<g filter="url(#filter0_di_224_4609)">
<circle cx="30" cy="30.5" r="25" fill="white" fill-opacity="0.01" shape-rendering="crispEdges"/>
</g>
<mask id="mask0_224_4609" style="mask-type:alpha" maskUnits="userSpaceOnUse" x="5" y="5" width="50" height="51">
<circle cx="30" cy="30.5" r="25" fill="#D9D9D9"/>
</mask>
<g mask="url(#mask0_224_4609)">
<g filter="url(#filter1_f_224_4609)">
<ellipse cx="46.5" cy="13.5" rx="23.5" ry="23" fill="#9747FF" fill-opacity="0.8"/>
</g>
</g>
<circle cx="30" cy="30.5" r="22" fill="black" fill-opacity="0.95"/>
<path d="M22 22.5H38C39.1 22.5 40 23.4 40 24.5V36.5C40 37.6 39.1 38.5 38 38.5H22C20.9 38.5 20 37.6 20 36.5V24.5C20 23.4 20.9 22.5 22 22.5Z" stroke="white" stroke-width="2" stroke-linecap="round" stroke-linejoin="round"/>
<path d="M40 24.5L30 31.5L20 24.5" stroke="white" stroke-width="2" stroke-linecap="round" stroke-linejoin="round"/>
<defs>
<filter id="filter0_di_224_4609" x="0" y="0.5" width="60" height="60" filterUnits="userSpaceOnUse" color-interpolation-filters="sRGB">
<feFlood flood-opacity="0" result="BackgroundImageFix"/>
<feColorMatrix in="SourceAlpha" type="matrix" values="0 0 0 0 0 0 0 0 0 0 0 0 0 0 0 0 0 0 127 0" result="hardAlpha"/>
<feOffset/>
<feGaussianBlur stdDeviation="2.5"/>
<feComposite in2="hardAlpha" operator="out"/>
<feColorMatrix type="matrix" values="0 0 0 0 0.592157 0 0 0 0 0.278431 0 0 0 0 1 0 0 0 1 0"/>
<feBlend mode="normal" in2="BackgroundImageFix" result="effect1_dropShadow_224_4609"/>
<feBlend mode="normal" in="SourceGraphic" in2="effect1_dropShadow_224_4609" result="shape"/>
<feColorMatrix in="SourceAlpha" type="matrix" values="0 0 0 0 0 0 0 0 0 0 0 0 0 0 0 0 0 0 127 0" result="hardAlpha"/>
<feOffset/>
<feGaussianBlur stdDeviation="9.9"/>
<feComposite in2="hardAlpha" operator="arithmetic" k2="-1" k3="1"/>
<feColorMatrix type="matrix" values="0 0 0 0 0.592157 0 0 0 0 0.278431 0 0 0 0 1 0 0 0 1 0"/>
<feBlend mode="normal" in2="shape" result="effect2_innerShadow_224_4609"/>
</filter>
<filter id="filter1_f_224_4609" x="11" y="-21.5" width="71" height="70" filterUnits="userSpaceOnUse" color-interpolation-filters="sRGB">
<feFlood flood-opacity="0" result="BackgroundImageFix"/>
<feBlend mode="normal" in="SourceGraphic" in2="BackgroundImageFix" result="shape"/>
<feGaussianBlur stdDeviation="6" result="effect1_foregroundBlur_224_4609"/>
</filter>
</defs>
</svg>
